<svg xmlns="http://www.w3.org/2000/svg" xmlns:xlink="http://www.w3.org/1999/xlink" width="382" height="320" viewBox="0 0 382 320">
  <defs>
    <linearGradient id="linear-gradient" x1="0.5" x2="0.5" y2="1" gradientUnits="objectBoundingBox">
      <stop offset="0" stop-color="#fff"/>
      <stop offset="0.338" stop-color="#f2f4ff"/>
      <stop offset="1" stop-color="#c5cbe1"/>
    </linearGradient>
    <radialGradient id="radial-gradient" cx="0.5" cy="0.5" r="0.231" gradientTransform="translate(-0.824 -0.136) scale(2.165 1.268)" gradientUnits="objectBoundingBox">
      <stop offset="0" stop-color="#63adb0"/>
      <stop offset="0.005" stop-color="#62acaf"/>
      <stop offset="0.228" stop-color="#4a8189"/>
      <stop offset="0.445" stop-color="#365f6b"/>
      <stop offset="0.651" stop-color="#294756"/>
      <stop offset="0.841" stop-color="#203949"/>
      <stop offset="1" stop-color="#1e3445"/>
    </radialGradient>
    <filter id="Rectangle_2027" x="101" y="3" width="180" height="319.811" filterUnits="userSpaceOnUse">
      <feOffset dy="2" input="SourceAlpha"/>
      <feGaussianBlur stdDeviation="10" result="blur"/>
      <feFlood flood-opacity="0.2"/>
      <feComposite operator="in" in2="blur"/>
      <feComposite in="SourceGraphic"/>
    </filter>
    <linearGradient id="linear-gradient-2" x1="0.912" y1="0.205" x2="0.204" y2="1.056" gradientUnits="objectBoundingBox">
      <stop offset="0" stop-color="#e38234"/>
      <stop offset="1" stop-color="#c05c32"/>
    </linearGradient>
    <linearGradient id="linear-gradient-3" x1="0.032" y1="0.122" x2="0.671" y2="0.651" gradientUnits="objectBoundingBox">
      <stop offset="0" stop-color="#1e3445"/>
      <stop offset="1" stop-color="#1e3445"/>
    </linearGradient>
    <clipPath id="clip-GamePlayThumbnail">
      <rect width="382" height="320"/>
    </clipPath>
  </defs>
  <g id="GamePlayThumbnail" clip-path="url(#clip-GamePlayThumbnail)">
    <rect width="382" height="320" fill="#fff"/>
    <rect id="Rectangle_1843" data-name="Rectangle 1843" width="382" height="320" fill="url(#linear-gradient)"/>
    <circle id="Ellipse_425" data-name="Ellipse 425" cx="100" cy="100" r="100" transform="translate(91 61)" fill="#c6cde1"/>
    <g transform="matrix(1, 0, 0, 1, 0, 0)" filter="url(#Rectangle_2027)">
      <rect id="Rectangle_2027-2" data-name="Rectangle 2027" width="120" height="259.811" rx="15" transform="translate(131 31)" fill="url(#radial-gradient)"/>
    </g>
    <g id="Group_1504" data-name="Group 1504" transform="translate(545.492 -415.014)">
      <g id="Group_1502" data-name="Group 1502">
        <path id="Path_1870" data-name="Path 1870" d="M-381.338,557.03a69.018,69.018,0,0,0,4.736,14.976,85.2,85.2,0,0,0,22.611,30.441,85.2,85.2,0,0,0,22.61-30.441,68.924,68.924,0,0,0,4.736-14.976c-9.73-8.1-24.959-12.869-27.346-13.584C-356.378,544.161-371.608,548.935-381.338,557.03Z" fill="#7cc4c4"/>
        <path id="Path_1871" data-name="Path 1871" d="M-378.07,558.317a58.231,58.231,0,0,0,4.137,13.268,73.569,73.569,0,0,0,19.942,26.67,73.592,73.592,0,0,0,19.942-26.67,58.288,58.288,0,0,0,4.137-13.268c-8.7-7.388-22.731-11.547-24.079-11.935C-355.34,546.77-369.374,550.929-378.07,558.317Z" fill="#aaf2ff"/>
        <g id="Group_1500" data-name="Group 1500">
          <path id="Path_1872" data-name="Path 1872" d="M-353.991,605.5l-.75-.628a87.557,87.557,0,0,1-24.04-32.019,66.343,66.343,0,0,1-4.974-16.137l-.083-.627.479-.412c10.877-9.364,28.313-14.367,29.05-14.575l.318-.09.318.09c.737.208,18.172,5.211,29.049,14.575l.479.412-.083.627a66.309,66.309,0,0,1-4.973,16.137,87.569,87.569,0,0,1-24.04,32.019Zm-27.347-48.472a69.018,69.018,0,0,0,4.736,14.976,85.2,85.2,0,0,0,22.611,30.441,85.2,85.2,0,0,0,22.61-30.441,68.924,68.924,0,0,0,4.736-14.976c-9.73-8.1-24.959-12.869-27.346-13.584C-356.378,544.161-371.608,548.935-381.338,557.03Z" fill="#1e3445"/>
        </g>
        <g id="Group_1501" data-name="Group 1501">
          <path id="Path_1873" data-name="Path 1873" d="M-353.991,599.272l-.25-.209a74.358,74.358,0,0,1-20.419-27.2,57.251,57.251,0,0,1-4.213-13.655L-378.9,558l.16-.138c9.213-7.932,24.493-12.222,24.646-12.264l.1-.029.1.029c.153.042,15.433,4.332,24.646,12.264l.16.138-.028.209a57.23,57.23,0,0,1-4.214,13.655,74.365,74.365,0,0,1-20.418,27.2Zm-24.079-40.955a58.231,58.231,0,0,0,4.137,13.268,73.569,73.569,0,0,0,19.942,26.67,73.592,73.592,0,0,0,19.942-26.67,58.288,58.288,0,0,0,4.137-13.268c-8.7-7.388-22.731-11.547-24.079-11.935C-355.34,546.77-369.374,550.929-378.07,558.317Z" fill="#1e3445"/>
        </g>
        <path id="Path_1874" data-name="Path 1874" d="M-322.675,589.118V589h-.072l-1.036-1.651a7.784,7.784,0,0,0-6.6-3.5,7.949,7.949,0,0,0-4.431,1.32v-1.1h-6.63v1.685l-1.2-1.685h-2.326v-1.351l3.181-5.836h-12.358l-.426,1.254v-1.254h-5.3v.024a3.969,3.969,0,0,0-.424-.024h-4.055v7.187h-5.811l-.968,2.847a7.847,7.847,0,0,0-6.3-3.07,7.78,7.78,0,0,0-7.88,7.849,7.854,7.854,0,0,0,8.055,7.816,8.4,8.4,0,0,0,1.944-.223h7.1l.557-1.749h1.148l.556,1.749h9.024v-1.749h1.958v1.749h13.947v-1.685l1.2,1.685h5.006v-1.144a8.267,8.267,0,0,0,4.606,1.367,7.277,7.277,0,0,0,7.53-7.515v-2.835l.022-.013Zm-33.789-2.833h1.049l-.525.859Z" fill="#1e3445"/>
        <text id="GAMING" transform="translate(-389.491 582.551)" fill="#e38234" font-size="15.905" font-family="Gilroy-ExtraBold, Gilroy" font-weight="800" letter-spacing="-0.05em"><tspan x="5.75" y="15">GAMING</tspan></text>
        <text id="PLAY" transform="translate(-366.741 577.387)" fill="#fff" font-size="7.591" font-family="Gilroy-ExtraBold, Gilroy" font-weight="800"><tspan x="3.981" y="7">PLAY</tspan></text>
      </g>
      <g id="Group_1503" data-name="Group 1503">
        <path id="Path_1875" data-name="Path 1875" d="M-346.638,557.9a22.123,22.123,0,0,1-4.043,7.868l2.921,2.325s-6.091,4.917-11.96,4.74a8.228,8.228,0,0,1-4.851-1.649,12.875,12.875,0,0,0,11.473,4.2c5.36-.615,9.69-4.806,9.685-10.172A9.9,9.9,0,0,0-346.638,557.9Z" fill="url(#linear-gradient-2)"/>
        <path id="Path_1876" data-name="Path 1876" d="M-347.284,557.419a13.953,13.953,0,0,0,1.023-1.752,3.213,3.213,0,0,0-.045-3.069c-.027-.048-.056-.094-.086-.14a3.991,3.991,0,0,0-2.552-1.689,22.05,22.05,0,0,0-8.8,0,3.991,3.991,0,0,0-2.552,1.689,3.329,3.329,0,0,0-.394,2.832c.254.8.513,1.628.774,2.487a9.9,9.9,0,0,0-3.359,7.441,9.879,9.879,0,0,0,2.117,6.124c2.053-.149,4.7-1.111,8.076-3.562l-3.984-2.333a24.213,24.213,0,0,0,7.863-5.6A27.27,27.27,0,0,0-347.284,557.419Zm-9.29.812-.142,1.429c-.336-1.152-.671-2.268-1-3.337l-.006-.017h0c-.175-.567-.348-1.122-.52-1.659a1.175,1.175,0,0,1,.141-1.014,1.426,1.426,0,0,1,.921-.609,19.256,19.256,0,0,1,7.675,0,1.422,1.422,0,0,1,.92.609,1.175,1.175,0,0,1,.141,1.014c-.171.537-.345,1.092-.52,1.659a9.878,9.878,0,0,0-4.379-1.017h-.031A3.25,3.25,0,0,0-356.574,558.231Z" fill="url(#linear-gradient-3)"/>
      </g>
    </g>
  </g>
</svg>
