<svg xmlns="http://www.w3.org/2000/svg" xmlns:xlink="http://www.w3.org/1999/xlink" viewBox="0 0 142.74 92.65"><defs><style>.cls-1{fill:#f4d242;}.cls-2,.cls-7{fill:#2d2d2d;}.cls-3{fill:url(#Orange_Yellow);}.cls-4{fill:url(#Orange_Yellow-2);}.cls-5{fill:#fff;}.cls-5,.cls-6,.cls-7{fill-rule:evenodd;}.cls-6{fill:#e6e6e6;}</style><linearGradient id="Orange_Yellow" x1="17.43" y1="42.31" x2="22.43" y2="42.31" gradientUnits="userSpaceOnUse"><stop offset="0" stop-color="#fff23a"/><stop offset="0.04" stop-color="#fee62d"/><stop offset="0.12" stop-color="#fed41a"/><stop offset="0.2" stop-color="#fdc90f"/><stop offset="0.28" stop-color="#fdc60b"/><stop offset="0.67" stop-color="#f28f3f"/><stop offset="0.89" stop-color="#ed693c"/><stop offset="1" stop-color="#e83e39"/></linearGradient><linearGradient id="Orange_Yellow-2" x1="90.34" y1="305.45" x2="130.25" y2="305.45" gradientTransform="matrix(1, 0, 0, -1, 0, 340.32)" xlink:href="#Orange_Yellow"/></defs><title>Asset 1</title><g id="Layer_2" data-name="Layer 2"><g id="Layer_1-2" data-name="Layer 1"><path class="cls-1" d="M112,3.15c0,1.74-.7,8-1.6,8s-1.66-6.26-1.67-8S109.42,0,110.33,0,112,1.41,112,3.15Z"/><path class="cls-1" d="M132.41,13.44c-1,1.14-4.3,5.93-3.71,6.8s4.82-2.53,5.86-3.67,1.4-2.76.81-3.63S133.45,12.3,132.41,13.44Z"/><path class="cls-1" d="M140.46,41.37c-1.36.22-6.37.11-6.49-1s4.7-2.85,6.07-3.08a2.17,2.17,0,0,1,2.69,1.65A2.51,2.51,0,0,1,140.46,41.37Z"/><path class="cls-1" d="M88.9,13.36c1.09,1.07,4.56,5.65,4,6.55s-4.92-2.22-6-3.29-1.52-2.67-1-3.57S87.81,12.29,88.9,13.36Z"/><path class="cls-1" d="M79.92,41.37c1.37.22,6.38.07,6.49-1.06s-4.72-2.83-6.09-3.05a2.16,2.16,0,0,0-2.68,1.67A2.49,2.49,0,0,0,79.92,41.37Z"/><path class="cls-2" d="M37.33,78.19c0-3.64.7-4.34,1.89-4.34a8.64,8.64,0,0,1,3.34.55v7.08a6.29,6.29,0,0,1-3.34.85c-1.24,0-1.89-1-1.89-4.14Zm-3.74.1c0,4.44,1.14,7.23,4.63,7.23a7.45,7.45,0,0,0,4.34-1.59l.65,1.44H46.3V64.28H42.56v7.58a10.79,10.79,0,0,0-4.34-1c-3.94,0-4.63,2.84-4.63,7.38Zm18.7-1.2c0-3.09.7-3.19,2.69-3.19,1.8,0,2.05.3,2.05,2.1a1,1,0,0,1-1.15,1.09Zm-3.74,1.1c0,5.24,1,7.33,4.68,7.33,2.25,0,5.29,0,7.29-.75V82.23a29.63,29.63,0,0,1-5.24.3c-2.05,0-3-.2-3-2.74h4.54c2.59,0,4-1.05,4-3.59,0-4.74-1.9-5.19-6-5.19-4.54,0-6.23,1-6.23,7.18Zm13.86-2.14c0,2.79,1.5,3.84,4,3.84h3.34c.8,0,1,.34,1,.94v.65a.82.82,0,0,1-1,.9H63v2.34c1,.65,5.23.8,7.93.8,1.74,0,3.54-.8,3.54-3.74V80.33c0-2.09-1.1-3.69-3.79-3.69H67.3c-.65,0-1.1,0-1.1-.94v-.65c0-.65.1-1,1.1-1h6.48V71.71c-1.15-.65-4.94-.75-7.68-.75s-3.69,1.64-3.69,3.84Zm14,9.32h3.74V71.11H76.42ZM76.28,69a.61.61,0,0,0,.64.6h2.84c.1,0,7-6.93,7.79-7.68-7.84,4.49-11.27,3.69-11.27,4.69Zm9.87,7.14c0-1.05.25-2.05,1.79-2.05h1.45c1.35,0,1.8.6,1.85,2.05,0,1.29-.4,2.19-1.85,2.19h-1.5c-1.29,0-1.74-.9-1.74-2.19Zm.1,11.91V85.67a7,7,0,0,0,1.09.1h2.9c1.05,0,1.39.5,1.39,1.3v1c0,.85-.14,1.5-1.49,1.5H87.89c-.94,0-1.64-.15-1.64-1.55Zm-3.94-5.43a3,3,0,0,0,1.4,2.74l-1.25,1.35v1.79c0,2.8,1.89,4.14,4.44,4.14h4c3.49,0,4.43-2.09,4.43-4.14V86.92c0-2.85-1.64-4.19-4.18-4.19H86.8c-.6,0-1.1-.1-1.1-.75s.65-.6,1.1-.6h3.29c4,0,4.89-2.74,4.89-4.79a5.58,5.58,0,0,0-.55-2.79L96,73.3V71.11H87.34c-3.19,0-4.93,1.64-4.93,5,0,1.39.4,3.19,1.54,3.94a2.52,2.52,0,0,0-1.64,2.54Zm15.36,2.74h3.74V75.1a5.15,5.15,0,0,1,3.44-1.2c1,0,1.6.5,1.6,1.9v9.57h3.74V75.85c0-2.7-1-5-4.24-5a6.82,6.82,0,0,0-4.54,1.79l-.75-1.54h-3Zm14.74-9.32c0,2.79,1.5,3.84,4,3.84h3.34c.8,0,1,.34,1,.94v.65a.82.82,0,0,1-1,.9H113v2.34c1,.65,5.23.8,7.93.8,1.74,0,3.54-.8,3.54-3.74V80.33c0-2.09-1.1-3.69-3.79-3.69H117.3c-.65,0-1.1,0-1.1-.94v-.65c0-.65.1-1,1.1-1h6.48V71.71c-1.15-.65-4.94-.75-7.68-.75s-3.69,1.64-3.69,3.84Z"/><path class="cls-2" d="M13.05,46a5.14,5.14,0,0,0-3.48,1.4L9,46.15s-2.49-.1-2.88-.1a4.54,4.54,0,0,0-3.17,1.51l-.46-1.39H0V57.23H2.94v-7A2.91,2.91,0,0,1,5.73,49l.9,0v8.24H9.57v-8a3.93,3.93,0,0,1,2.67-.93c.7,0,1.2.39,1.2,1.47v7.43h2.94V49.82C16.38,47.73,15.64,46,13.05,46Z"/><path class="cls-2" d="M29.79,46a5.25,5.25,0,0,0-3.52,1.4l-.58-1.2H23.37V57.23h2.9v-8a4,4,0,0,1,2.67-.93c.74,0,1.24.39,1.24,1.47v7.43h2.9V49.84C33.08,47.75,32.35,46,29.79,46Z"/><path class="cls-2" d="M41.85,46.93a8.14,8.14,0,0,0-3.27-.72c-3,0-3.5,2.15-3.5,5.57s.87,5.45,3.5,5.45A5.6,5.6,0,0,0,41.85,56l.49,1.09h2.33V41.21H41.85Zm0,7.26a4.82,4.82,0,0,1-2.52.64c-.94,0-1.43-.76-1.43-3.13,0-2.74.53-3.27,1.43-3.27a6.57,6.57,0,0,1,2.52.41Z"/><rect class="cls-2" x="18.49" y="45.97" width="2.87" height="11.26"/><path class="cls-2" d="M72.15,47a8.48,8.48,0,0,0-3.37-.73c-3,0-3.6,2.32-3.6,5.72s.89,5.61,3.6,5.61a5.54,5.54,0,0,0,3.33-1.24l.54,1.13h2.4V45.81l-2.47.12Zm0,7.47a4.83,4.83,0,0,1-2.55.66c-1,0-1.47-.78-1.47-3.22,0-2.82.54-3.36,1.47-3.36a6.44,6.44,0,0,1,2.55.42Z"/><path class="cls-2" d="M59.8,45.81a5.14,5.14,0,0,0-3.48,1.4L55.74,46s-2.49-.1-2.88-.1a4.48,4.48,0,0,0-3.17,1.51L49.22,46H46.75V57.09h2.94v-7a2.89,2.89,0,0,1,2.78-1.24l.91,0v8.24h2.94v-8A3.93,3.93,0,0,1,59,48.17c.69,0,1.2.39,1.2,1.47v7.43h2.94V49.68C63.13,47.59,62.39,45.81,59.8,45.81Z"/><path class="cls-2" d="M79.85,56.12a8.16,8.16,0,0,0,3.28.71c3,0,3.5-2.14,3.5-5.56s-.87-5.46-3.5-5.46A5.59,5.59,0,0,0,79.85,47l-.48-1.09H77V61.84h2.82Zm0-7.26a4.79,4.79,0,0,1,2.53-.64c.94,0,1.42.75,1.42,3.12,0,2.75-.52,3.27-1.42,3.27a6.65,6.65,0,0,1-2.53-.41Z"/><circle class="cls-3" cx="19.93" cy="42.31" r="2.5"/><ellipse class="cls-4" cx="110.3" cy="34.87" rx="19.96" ry="17.86"/><path class="cls-5" d="M102.84,53.44h14.88l.24-.34v0l8.89-12.45V39L124,41.05a2.06,2.06,0,0,1-2.26,0l-4.55-3.27L111.45,42a2,2,0,0,1-2.34-.06l-5.33-4.11-4.26,3.64a2,2,0,0,1-2.37.07L93.7,39v1.62l8.94,12.45,0,.1Z"/><path class="cls-6" d="M110.34,42.38V53.44h-7.5l-.16-.27,0-.1L93.7,40.62V39l3.45,2.55a2,2,0,0,0,2.37-.07l4.26-3.64L109.11,42a1.86,1.86,0,0,0,1.23.43Z"/><path class="cls-7" d="M103.34,59.54l5.48,7.7a2,2,0,0,0,2.3.5,1.87,1.87,0,0,0,.65-.5l5.48-7.7Z"/><path class="cls-7" d="M128.57,34.56a2.07,2.07,0,0,0-1.27.43l-4.42,3.22-4.51-3.31a2,2,0,0,0-2.29,0l-5.74,4.2-5.49-4.2a1.94,1.94,0,0,0-2.38.06l-4.26,3.65L93.72,35.3c-2.21-1.89-3.23.09-3.38.52v0a.2.2,0,0,0,0,.05V41a1,1,0,0,0,.29.76l9.06,12.71.08.07,1.39,2h18.27l1.44-2L130,41.68a1.2,1.2,0,0,0,.24-.69V35.92A1.55,1.55,0,0,0,128.57,34.56Zm-1.72,6.06L118,53.1l-.24.34H102.87l-.19-.27s0-.07,0-.07L93.7,40.62V39l3.45,2.55a2,2,0,0,0,2.37-.07l4.26-3.64L109.11,42a2,2,0,0,0,2.34.06l5.77-4.23,4.55,3.27a2.06,2.06,0,0,0,2.26,0L126.85,39Z"/></g></g></svg>